<svg width="70" height="70" viewBox="0 0 70 70" fill="none" xmlns="http://www.w3.org/2000/svg">
<path d="M0 16C0 7.16344 7.16344 0 16 0H54C62.8366 0 70 7.16344 70 16V54C70 62.8366 62.8366 70 54 70H16C7.16344 70 0 62.8366 0 54V16Z" fill="#2B221B"/>
<path d="M63.3 58.15C59.6667 59.9833 55.9833 60.2833 52.25 59.05C48.2833 57.7833 44.8667 55.0833 42 50.95C40.4667 48.75 39.15 46.2 38.05 43.3L36.45 39.05H24.65L22 45.35C21.8333 45.7833 21.75 46.1333 21.75 46.4C21.75 46.6667 21.8 46.9667 21.9 47.3C22.0333 47.6 22.2833 47.8833 22.65 48.15C23.05 48.3833 23.4833 48.5 23.95 48.5H24.35V49H13.65V48.5H14.1C14.8667 48.5 15.6167 48.2833 16.35 47.85C17.1167 47.3833 17.75 46.7 18.25 45.8L29.4 20.35C28.1 17.4167 26.7167 15.4 25.25 14.3C24.0167 13.3667 22.8333 12.9 21.7 12.9C20.6 12.9 19.5667 13.0667 18.6 13.4L18.5 12.9C20.9 11.6667 23.2 11.05 25.4 11.05C28.1333 11.05 30.5833 12.1167 32.75 14.25C34.8833 16.35 36.7667 19.3833 38.4 23.35L45.65 41.25C48.3833 48.0167 51.1833 52.6667 54.05 55.2C55.2167 56.2333 56.4167 56.95 57.65 57.35C58.8833 57.75 59.9167 57.95 60.75 57.95C61.6167 57.95 62.45 57.85 63.25 57.65L63.3 58.15ZM25.5 36.9H35.7L32.2 27.65C32.0333 27.1833 31.8 26.55 31.5 25.75C31.2 24.9167 31 24.3333 30.9 24L25.5 36.9Z" fill="#FFBD7C"/>
</svg>
