<svg width="10" height="11" viewBox="0 0 10 11" fill="none" xmlns="http://www.w3.org/2000/svg">
<path d="M10 5.90002C9.99848 4.57441 9.47118 3.30352 8.53378 2.36617C7.59638 1.42881 6.32542 0.901541 4.99974 0.900024C4.20987 0.901156 3.43146 1.08901 2.72803 1.44827C2.0246 1.80752 1.41608 2.32799 0.952133 2.96721V1.37607C0.952133 1.24981 0.901976 1.12873 0.812696 1.03945C0.723416 0.950179 0.602327 0.900024 0.476066 0.900024C0.349806 0.900024 0.228716 0.950179 0.139437 1.03945C0.0501568 1.12873 0 1.24981 0 1.37607V3.92815C0 4.13535 0.0823142 4.33406 0.228835 4.48058C0.375355 4.62709 0.57408 4.7094 0.781291 4.7094H3.33351C3.45977 4.7094 3.58086 4.65925 3.67014 4.56997C3.75942 4.48069 3.80957 4.35961 3.80957 4.23336C3.80957 4.1071 3.75942 3.98602 3.67014 3.89675C3.58086 3.80747 3.45977 3.75732 3.33351 3.75732H1.56675C1.9311 3.17523 2.43723 2.69514 3.03775 2.36201C3.63827 2.02888 4.31352 1.85362 5.00026 1.85263C6.07346 1.85387 7.10234 2.28076 7.86116 3.03964C8.61998 3.79852 9.04676 4.8274 9.04787 5.90055C9.04663 6.9736 8.61979 8.00235 7.86098 8.76112C7.10218 9.51988 6.07337 9.9467 5.00026 9.94794C4.15921 9.94772 3.33908 9.68576 2.65364 9.1984C1.9682 8.71104 1.45145 8.02245 1.17506 7.22815C1.15463 7.16905 1.12275 7.11456 1.08123 7.0678C1.03971 7.02104 0.989379 6.98292 0.933113 6.95564C0.876846 6.92835 0.815749 6.91243 0.753322 6.90879C0.690894 6.90514 0.62836 6.91385 0.5693 6.9344C0.450019 6.97577 0.352058 7.06283 0.296967 7.17643C0.241876 7.29002 0.234167 7.42085 0.275535 7.54013C0.61686 8.52119 1.25503 9.37172 2.10155 9.97377C2.94806 10.5758 3.96095 10.8995 4.99974 10.9C6.32542 10.8985 7.59638 10.3712 8.53378 9.43388C9.47118 8.49653 9.99848 7.22564 10 5.90002ZM4.22626 7.49221L5.33101 6.38752C5.36648 6.35202 5.39603 6.31104 5.41851 6.26617C5.45032 6.20134 5.46672 6.13004 5.46643 6.05784V3.24377C5.46643 3.11945 5.41704 3.00023 5.32913 2.91232C5.24122 2.82441 5.12198 2.77502 4.99766 2.77502C4.87333 2.77502 4.75409 2.82441 4.66618 2.91232C4.57827 3.00023 4.52888 3.11945 4.52888 3.24377V5.862L3.56112 6.82919C3.51758 6.87272 3.48303 6.9244 3.45947 6.98128C3.4359 7.03816 3.42377 7.09913 3.42377 7.1607C3.42377 7.22227 3.4359 7.28324 3.45947 7.34012C3.48303 7.397 3.51758 7.44868 3.56112 7.49221C3.64895 7.58014 3.76811 7.6296 3.89239 7.62971C3.95433 7.63007 4.01573 7.61815 4.07304 7.59464C4.13034 7.57112 4.18242 7.53597 4.22626 7.49221Z" fill="#525863"/>
</svg>
