<svg width="10" height="10" viewBox="0 0 10 10" fill="none" xmlns="http://www.w3.org/2000/svg">
<path d="M9.85959 9.15696L8.00569 7.31666C8.72531 6.41871 9.07381 5.27897 8.97952 4.13178C8.88523 2.98459 8.35532 1.91716 7.49875 1.14896C6.64219 0.380766 5.52407 -0.0297996 4.37431 0.00168576C3.22455 0.0331712 2.13054 0.504314 1.31724 1.31824C0.503932 2.13216 0.033146 3.227 0.00168448 4.37763C-0.029777 5.52827 0.380477 6.64723 1.14809 7.50445C1.9157 8.36167 2.98233 8.89198 4.12865 8.98634C5.27496 9.0807 6.41384 8.73194 7.3111 8.01177L9.15001 9.85208C9.19647 9.89895 9.25173 9.93615 9.31263 9.96154C9.37352 9.98693 9.43883 10 9.5048 10C9.57077 10 9.63608 9.98693 9.69697 9.96154C9.75787 9.93615 9.81313 9.89895 9.85959 9.85208C9.94965 9.75883 10 9.63421 10 9.50452C10 9.37483 9.94965 9.25021 9.85959 9.15696ZM4.50777 8.01177C3.81595 8.01177 3.13966 7.80647 2.56443 7.42182C1.9892 7.03717 1.54086 6.49046 1.27611 5.85081C1.01136 5.21116 0.942093 4.50731 1.07706 3.82827C1.21203 3.14922 1.54517 2.52548 2.03437 2.03591C2.52356 1.54635 3.14683 1.21295 3.82536 1.07788C4.50389 0.942809 5.20721 1.01213 5.84637 1.27708C6.48553 1.54203 7.03183 1.99071 7.41619 2.56638C7.80054 3.14205 8.00569 3.81885 8.00569 4.5112C8.00569 5.43961 7.63716 6.32999 6.98117 6.98648C6.32519 7.64296 5.43548 8.01177 4.50777 8.01177Z" fill="#9E9E9E"/>
</svg>
