<svg width="232" height="74" viewBox="0 0 232 74" fill="none" xmlns="http://www.w3.org/2000/svg">
<path d="M102.265 36.96C102.415 36.96 102.49 37.05 102.49 37.23C102.49 37.41 102.415 37.5 102.265 37.5C101.665 37.5 100.735 37.47 99.475 37.41C98.155 37.35 97.21 37.32 96.64 37.32C95.89 37.32 94.975 37.35 93.895 37.41C92.875 37.47 92.065 37.5 91.465 37.5C91.345 37.5 91.285 37.41 91.285 37.23C91.285 37.05 91.345 36.96 91.465 36.96C92.245 36.96 92.8 36.885 93.13 36.735C93.49 36.555 93.67 36.255 93.67 35.835C93.67 35.325 93.37 34.47 92.77 33.27L88.09 24.045H80.08L76.885 31.11C76.495 31.98 76.3 32.79 76.3 33.54C76.3 34.62 76.675 35.46 77.425 36.06C78.205 36.66 79.24 36.96 80.53 36.96C80.68 36.96 80.755 37.05 80.755 37.23C80.755 37.41 80.68 37.5 80.53 37.5C79.99 37.5 79.21 37.47 78.19 37.41C77.05 37.35 76.06 37.32 75.22 37.32C74.41 37.32 73.435 37.35 72.295 37.41C71.275 37.47 70.45 37.5 69.82 37.5C69.7 37.5 69.64 37.41 69.64 37.23C69.64 37.05 69.7 36.96 69.82 36.96C70.66 36.96 71.365 36.795 71.935 36.465C72.505 36.105 73.075 35.49 73.645 34.62C74.215 33.72 74.89 32.4 75.67 30.66L85.435 9.195C85.495 9.105 85.63 9.06 85.84 9.06C86.08 9.06 86.215 9.105 86.245 9.195L97.495 31.335C98.545 33.465 99.415 34.935 100.105 35.745C100.795 36.555 101.515 36.96 102.265 36.96ZM80.665 22.785H87.46L83.86 15.675L80.665 22.785ZM108.647 19.77C108.647 20.61 108.872 21.345 109.322 21.975C109.802 22.575 110.372 23.1 111.032 23.55C111.722 23.97 112.652 24.48 113.822 25.08C115.172 25.8 116.222 26.415 116.972 26.925C117.752 27.405 118.412 28.035 118.952 28.815C119.522 29.595 119.807 30.525 119.807 31.605C119.807 32.805 119.447 33.9 118.727 34.89C118.037 35.85 117.077 36.615 115.847 37.185C114.617 37.755 113.237 38.04 111.707 38.04C110.327 38.04 108.977 37.86 107.657 37.5C106.367 37.17 105.467 36.795 104.957 36.375C104.717 36.225 104.597 35.91 104.597 35.43L104.372 30.345C104.372 30.225 104.447 30.15 104.597 30.12C104.747 30.09 104.852 30.135 104.912 30.255C106.052 32.235 107.207 33.855 108.377 35.115C109.547 36.375 110.882 37.005 112.382 37.005C113.282 37.005 114.032 36.735 114.632 36.195C115.232 35.655 115.532 34.845 115.532 33.765C115.532 32.805 115.277 31.965 114.767 31.245C114.287 30.525 113.687 29.925 112.967 29.445C112.247 28.935 111.287 28.35 110.087 27.69C108.317 26.73 106.967 25.83 106.037 24.99C105.107 24.12 104.642 22.995 104.642 21.615C104.642 19.875 105.407 18.495 106.937 17.475C108.467 16.425 110.312 15.9 112.472 15.9C113.432 15.9 114.437 16.005 115.487 16.215C116.537 16.425 117.377 16.665 118.007 16.935C118.277 17.025 118.457 17.145 118.547 17.295C118.637 17.415 118.682 17.595 118.682 17.835V22.11C118.682 22.2 118.607 22.275 118.457 22.335C118.307 22.365 118.202 22.335 118.142 22.245C117.572 21.045 116.777 19.86 115.757 18.69C114.737 17.52 113.387 16.935 111.707 16.935C110.687 16.935 109.922 17.205 109.412 17.745C108.902 18.255 108.647 18.93 108.647 19.77ZM146.666 36.96C146.756 36.96 146.801 37.05 146.801 37.23C146.801 37.41 146.756 37.5 146.666 37.5H139.286C138.836 37.5 138.026 36.6 136.856 34.8C135.716 33 134.351 30.525 132.761 27.375C132.131 27.465 131.501 27.51 130.871 27.51H130.106V33.855C130.106 34.785 130.166 35.46 130.286 35.88C130.436 36.3 130.691 36.585 131.051 36.735C131.441 36.885 132.056 36.96 132.896 36.96C132.956 36.96 132.986 37.05 132.986 37.23C132.986 37.41 132.956 37.5 132.896 37.5C131.996 37.5 131.291 37.485 130.781 37.455L127.721 37.41L124.796 37.455C124.256 37.485 123.506 37.5 122.546 37.5C122.486 37.5 122.456 37.41 122.456 37.23C122.456 37.05 122.486 36.96 122.546 36.96C123.386 36.96 124.001 36.885 124.391 36.735C124.781 36.585 125.051 36.3 125.201 35.88C125.351 35.43 125.426 34.755 125.426 33.855V20.085C125.426 19.185 125.351 18.525 125.201 18.105C125.081 17.685 124.826 17.4 124.436 17.25C124.046 17.07 123.446 16.98 122.636 16.98C122.546 16.98 122.501 16.89 122.501 16.71C122.501 16.53 122.546 16.44 122.636 16.44L124.841 16.485C126.041 16.545 127.001 16.575 127.721 16.575C128.291 16.575 128.816 16.56 129.296 16.53C129.776 16.5 130.196 16.47 130.556 16.44C131.546 16.35 132.476 16.305 133.346 16.305C135.686 16.305 137.471 16.68 138.701 17.43C139.931 18.18 140.546 19.26 140.546 20.67C140.546 21.84 140.171 22.92 139.421 23.91C138.671 24.9 137.636 25.71 136.316 26.34C137.936 29.07 139.331 31.2 140.501 32.73C141.671 34.26 142.736 35.355 143.696 36.015C144.656 36.645 145.646 36.96 146.666 36.96ZM130.106 26.61C130.316 26.64 130.676 26.655 131.186 26.655C132.896 26.655 134.081 26.265 134.741 25.485C135.401 24.675 135.731 23.475 135.731 21.885C135.731 18.765 134.591 17.205 132.311 17.205C131.681 17.205 131.216 17.28 130.916 17.43C130.616 17.58 130.406 17.865 130.286 18.285C130.166 18.675 130.106 19.305 130.106 20.175V26.61ZM167.496 34.845C167.586 34.845 167.646 34.92 167.676 35.07C167.736 35.22 167.706 35.31 167.586 35.34L162.636 37.725C162.516 37.785 162.381 37.815 162.231 37.815C161.661 37.815 161.091 37.575 160.521 37.095C159.981 36.615 159.561 35.85 159.261 34.8L156.561 36.375C155.661 36.915 154.851 37.29 154.131 37.5C153.441 37.71 152.721 37.815 151.971 37.815C150.801 37.815 149.841 37.5 149.091 36.87C148.341 36.24 147.966 35.43 147.966 34.44C147.966 33.51 148.266 32.7 148.866 32.01C149.496 31.29 150.366 30.735 151.476 30.345L158.946 27.69V22.335C158.946 20.505 158.751 19.17 158.361 18.33C158.001 17.49 157.401 17.07 156.561 17.07C155.601 17.07 154.851 17.505 154.311 18.375C153.771 19.245 153.351 20.355 153.051 21.705C152.721 23.385 151.851 24.225 150.441 24.225C149.691 24.225 149.091 24.045 148.641 23.685C148.221 23.295 148.011 22.755 148.011 22.065C148.011 21.165 148.566 20.25 149.676 19.32C150.816 18.36 152.196 17.58 153.816 16.98C155.436 16.35 156.921 16.035 158.271 16.035C159.861 16.035 161.121 16.455 162.051 17.295C162.981 18.105 163.446 19.335 163.446 20.985V30.57C163.446 31.92 163.566 32.925 163.806 33.585C164.046 34.245 164.346 34.665 164.706 34.845C165.096 35.025 165.591 35.115 166.191 35.115C166.491 35.115 166.896 35.04 167.406 34.89L167.496 34.845ZM159.081 33.9C158.991 33.36 158.946 32.76 158.946 32.1V28.635L155.076 30.075C153.636 30.615 152.916 31.575 152.916 32.955C152.916 33.765 153.111 34.41 153.501 34.89C153.891 35.34 154.416 35.565 155.076 35.565C155.556 35.565 156.216 35.355 157.056 34.935L159.081 33.9ZM192.941 36.96C193.031 36.96 193.076 37.05 193.076 37.23C193.076 37.41 193.031 37.5 192.941 37.5H185.561C185.111 37.5 184.301 36.6 183.131 34.8C181.991 33 180.626 30.525 179.036 27.375C178.406 27.465 177.776 27.51 177.146 27.51H176.381V33.855C176.381 34.785 176.441 35.46 176.561 35.88C176.711 36.3 176.966 36.585 177.326 36.735C177.716 36.885 178.331 36.96 179.171 36.96C179.231 36.96 179.261 37.05 179.261 37.23C179.261 37.41 179.231 37.5 179.171 37.5C178.271 37.5 177.566 37.485 177.056 37.455L173.996 37.41L171.071 37.455C170.531 37.485 169.781 37.5 168.821 37.5C168.761 37.5 168.731 37.41 168.731 37.23C168.731 37.05 168.761 36.96 168.821 36.96C169.661 36.96 170.276 36.885 170.666 36.735C171.056 36.585 171.326 36.3 171.476 35.88C171.626 35.43 171.701 34.755 171.701 33.855V20.085C171.701 19.185 171.626 18.525 171.476 18.105C171.356 17.685 171.101 17.4 170.711 17.25C170.321 17.07 169.721 16.98 168.911 16.98C168.821 16.98 168.776 16.89 168.776 16.71C168.776 16.53 168.821 16.44 168.911 16.44L171.116 16.485C172.316 16.545 173.276 16.575 173.996 16.575C174.566 16.575 175.091 16.56 175.571 16.53C176.051 16.5 176.471 16.47 176.831 16.44C177.821 16.35 178.751 16.305 179.621 16.305C181.961 16.305 183.746 16.68 184.976 17.43C186.206 18.18 186.821 19.26 186.821 20.67C186.821 21.84 186.446 22.92 185.696 23.91C184.946 24.9 183.911 25.71 182.591 26.34C184.211 29.07 185.606 31.2 186.776 32.73C187.946 34.26 189.011 35.355 189.971 36.015C190.931 36.645 191.921 36.96 192.941 36.96ZM176.381 26.61C176.591 26.64 176.951 26.655 177.461 26.655C179.171 26.655 180.356 26.265 181.016 25.485C181.676 24.675 182.006 23.475 182.006 21.885C182.006 18.765 180.866 17.205 178.586 17.205C177.956 17.205 177.491 17.28 177.191 17.43C176.891 17.58 176.681 17.865 176.561 18.285C176.441 18.675 176.381 19.305 176.381 20.175V26.61ZM201.17 33.855C201.17 34.755 201.245 35.43 201.395 35.88C201.545 36.3 201.815 36.585 202.205 36.735C202.595 36.885 203.225 36.96 204.095 36.96C204.155 36.96 204.185 37.05 204.185 37.23C204.185 37.41 204.155 37.5 204.095 37.5C203.165 37.5 202.445 37.485 201.935 37.455L198.875 37.41L195.95 37.455C195.41 37.485 194.66 37.5 193.7 37.5C193.64 37.5 193.61 37.41 193.61 37.23C193.61 37.05 193.64 36.96 193.7 36.96C194.57 36.96 195.2 36.885 195.59 36.735C196.01 36.585 196.295 36.3 196.445 35.88C196.595 35.43 196.67 34.755 196.67 33.855V20.085C196.67 19.185 196.595 18.525 196.445 18.105C196.295 17.685 196.01 17.4 195.59 17.25C195.2 17.07 194.57 16.98 193.7 16.98C193.64 16.98 193.61 16.89 193.61 16.71C193.61 16.53 193.64 16.44 193.7 16.44L195.95 16.485C197.15 16.545 198.125 16.575 198.875 16.575C199.685 16.575 200.72 16.545 201.98 16.485L204.095 16.44C204.155 16.44 204.185 16.53 204.185 16.71C204.185 16.89 204.155 16.98 204.095 16.98C203.255 16.98 202.625 17.07 202.205 17.25C201.815 17.43 201.545 17.745 201.395 18.195C201.245 18.615 201.17 19.275 201.17 20.175V33.855ZM227.393 34.845C227.483 34.845 227.543 34.92 227.573 35.07C227.633 35.22 227.603 35.31 227.483 35.34L222.533 37.725C222.413 37.785 222.278 37.815 222.128 37.815C221.558 37.815 220.988 37.575 220.418 37.095C219.878 36.615 219.458 35.85 219.158 34.8L216.458 36.375C215.558 36.915 214.748 37.29 214.028 37.5C213.338 37.71 212.618 37.815 211.868 37.815C210.698 37.815 209.738 37.5 208.988 36.87C208.238 36.24 207.863 35.43 207.863 34.44C207.863 33.51 208.163 32.7 208.763 32.01C209.393 31.29 210.263 30.735 211.373 30.345L218.843 27.69V22.335C218.843 20.505 218.648 19.17 218.258 18.33C217.898 17.49 217.298 17.07 216.458 17.07C215.498 17.07 214.748 17.505 214.208 18.375C213.668 19.245 213.248 20.355 212.948 21.705C212.618 23.385 211.748 24.225 210.338 24.225C209.588 24.225 208.988 24.045 208.538 23.685C208.118 23.295 207.908 22.755 207.908 22.065C207.908 21.165 208.463 20.25 209.573 19.32C210.713 18.36 212.093 17.58 213.713 16.98C215.333 16.35 216.818 16.035 218.168 16.035C219.758 16.035 221.018 16.455 221.948 17.295C222.878 18.105 223.343 19.335 223.343 20.985V30.57C223.343 31.92 223.463 32.925 223.703 33.585C223.943 34.245 224.243 34.665 224.603 34.845C224.993 35.025 225.488 35.115 226.088 35.115C226.388 35.115 226.793 35.04 227.303 34.89L227.393 34.845ZM218.978 33.9C218.888 33.36 218.843 32.76 218.843 32.1V28.635L214.973 30.075C213.533 30.615 212.813 31.575 212.813 32.955C212.813 33.765 213.008 34.41 213.398 34.89C213.788 35.34 214.313 35.565 214.973 35.565C215.453 35.565 216.113 35.355 216.953 34.935L218.978 33.9Z" fill="url(#paint0_linear_236_212)"/>
<path d="M79.063 45.323C79.063 45.3483 79.025 45.3673 78.949 45.38C78.8857 45.3927 78.8477 45.38 78.835 45.342C78.6323 44.6073 78.2903 44.0627 77.809 43.708C77.3277 43.3533 76.6943 43.176 75.909 43.176H75.339C74.959 43.176 74.6803 43.2583 74.503 43.423C74.3257 43.5877 74.237 43.841 74.237 44.183V48.287H75.605C76.3397 48.287 76.897 48.1603 77.277 47.907C77.6697 47.641 77.866 47.28 77.866 46.824C77.866 46.7987 77.904 46.786 77.98 46.786C78.056 46.786 78.094 46.7987 78.094 46.824L78.075 48.553C78.075 48.9583 78.0813 49.2623 78.094 49.465L78.113 50.472C78.113 50.51 78.075 50.529 77.999 50.529C77.923 50.529 77.885 50.51 77.885 50.472C77.885 49.9653 77.6823 49.5663 77.277 49.275C76.8843 48.971 76.3207 48.819 75.586 48.819H74.237V52.885C74.237 53.2777 74.2877 53.569 74.389 53.759C74.4903 53.949 74.6803 54.082 74.959 54.158C75.2377 54.234 75.6747 54.272 76.27 54.272C76.2953 54.272 76.308 54.31 76.308 54.386C76.308 54.462 76.2953 54.5 76.27 54.5C75.7507 54.5 75.3453 54.4937 75.054 54.481L73.116 54.462L71.691 54.481C71.4377 54.4937 71.0893 54.5 70.646 54.5C70.608 54.5 70.589 54.462 70.589 54.386C70.589 54.31 70.608 54.272 70.646 54.272C71.0893 54.272 71.4123 54.2403 71.615 54.177C71.8177 54.1137 71.9507 53.9933 72.014 53.816C72.09 53.626 72.128 53.341 72.128 52.961V44.164C72.128 43.784 72.0963 43.5053 72.033 43.328C71.9697 43.1507 71.843 43.0303 71.653 42.967C71.463 42.891 71.1717 42.853 70.779 42.853C70.741 42.853 70.722 42.815 70.722 42.739C70.722 42.663 70.741 42.625 70.779 42.625H78.835C78.9617 42.625 79.025 42.682 79.025 42.796L79.063 45.323ZM99.2688 45.836C98.9774 45.836 98.7621 45.874 98.6228 45.95C98.4834 46.0133 98.3884 46.1337 98.3378 46.311C98.2871 46.4883 98.2618 46.767 98.2618 47.147V52.961C98.2618 53.341 98.2871 53.626 98.3378 53.816C98.3884 53.9933 98.4771 54.1137 98.6038 54.177C98.7431 54.2403 98.9521 54.272 99.2308 54.272C99.2688 54.272 99.2878 54.31 99.2878 54.386C99.2878 54.462 99.2688 54.5 99.2308 54.5L97.9958 54.481L96.7228 54.5C96.5708 54.5 96.4694 54.481 96.4188 54.443C96.3808 54.405 96.3618 54.3037 96.3618 54.139V53.113C95.4118 54.1897 94.2844 54.728 92.9798 54.728C92.1058 54.728 91.3711 54.4937 90.7758 54.025C90.1804 53.5563 89.8828 52.8343 89.8828 51.859V47.147C89.8828 46.767 89.8638 46.4883 89.8258 46.311C89.7878 46.1337 89.7181 46.0133 89.6168 45.95C89.5154 45.874 89.3571 45.836 89.1418 45.836C89.1164 45.836 89.1038 45.798 89.1038 45.722C89.1038 45.646 89.1164 45.608 89.1418 45.608L89.8828 45.627C90.2881 45.6523 90.6174 45.665 90.8708 45.665C91.1748 45.665 91.5548 45.6523 92.0108 45.627L92.7708 45.608C92.7961 45.608 92.8088 45.646 92.8088 45.722C92.8088 45.798 92.7961 45.836 92.7708 45.836C92.4794 45.836 92.2641 45.874 92.1248 45.95C91.9854 46.026 91.8904 46.159 91.8398 46.349C91.7891 46.5263 91.7638 46.805 91.7638 47.185V51.403C91.7638 52.3657 91.9411 53.056 92.2958 53.474C92.6631 53.892 93.1444 54.101 93.7398 54.101C94.7278 54.101 95.6018 53.5627 96.3618 52.486V47.185C96.3618 46.805 96.3364 46.5263 96.2858 46.349C96.2478 46.159 96.1591 46.026 96.0198 45.95C95.8931 45.874 95.6904 45.836 95.4118 45.836C95.3738 45.836 95.3548 45.798 95.3548 45.722C95.3548 45.646 95.3738 45.608 95.4118 45.608L96.2858 45.627C96.7671 45.6523 97.1344 45.665 97.3878 45.665C97.6158 45.665 97.9578 45.6523 98.4138 45.627L99.2688 45.608C99.3068 45.608 99.3258 45.646 99.3258 45.722C99.3258 45.798 99.3068 45.836 99.2688 45.836ZM119.155 54.272C119.193 54.272 119.212 54.31 119.212 54.386C119.212 54.462 119.193 54.5 119.155 54.5H116.039C115.849 54.5 115.507 54.12 115.013 53.36C114.531 52.6 113.955 51.555 113.284 50.225C113.018 50.263 112.752 50.282 112.486 50.282H112.163V52.961C112.163 53.3537 112.188 53.6387 112.239 53.816C112.302 53.9933 112.41 54.1137 112.562 54.177C112.726 54.2403 112.986 54.272 113.341 54.272C113.366 54.272 113.379 54.31 113.379 54.386C113.379 54.462 113.366 54.5 113.341 54.5C112.961 54.5 112.663 54.4937 112.448 54.481L111.156 54.462L109.921 54.481C109.693 54.4937 109.376 54.5 108.971 54.5C108.945 54.5 108.933 54.462 108.933 54.386C108.933 54.31 108.945 54.272 108.971 54.272C109.325 54.272 109.585 54.2403 109.75 54.177C109.914 54.1137 110.028 53.9933 110.092 53.816C110.155 53.626 110.187 53.341 110.187 52.961V47.147C110.187 46.767 110.155 46.4883 110.092 46.311C110.041 46.1337 109.933 46.0133 109.769 45.95C109.604 45.874 109.351 45.836 109.009 45.836C108.971 45.836 108.952 45.798 108.952 45.722C108.952 45.646 108.971 45.608 109.009 45.608L109.94 45.627C110.446 45.6523 110.852 45.665 111.156 45.665C111.396 45.665 111.618 45.6587 111.821 45.646C112.023 45.6333 112.201 45.6207 112.353 45.608C112.771 45.57 113.163 45.551 113.531 45.551C114.519 45.551 115.272 45.7093 115.792 46.026C116.311 46.3427 116.571 46.7987 116.571 47.394C116.571 47.888 116.412 48.344 116.096 48.762C115.779 49.18 115.342 49.522 114.785 49.788C115.469 50.9407 116.058 51.84 116.552 52.486C117.046 53.132 117.495 53.5943 117.901 53.873C118.306 54.139 118.724 54.272 119.155 54.272ZM112.163 49.902C112.251 49.9147 112.403 49.921 112.619 49.921C113.341 49.921 113.841 49.7563 114.12 49.427C114.398 49.085 114.538 48.5783 114.538 47.907C114.538 46.5897 114.056 45.931 113.094 45.931C112.828 45.931 112.631 45.9627 112.505 46.026C112.378 46.0893 112.289 46.2097 112.239 46.387C112.188 46.5517 112.163 46.8177 112.163 47.185V49.902ZM138.057 54.272C138.083 54.272 138.095 54.31 138.095 54.386C138.095 54.462 138.083 54.5 138.057 54.5C137.741 54.5 137.494 54.4937 137.316 54.481L136.328 54.462L135.188 54.481C134.998 54.4937 134.745 54.5 134.428 54.5C134.403 54.5 134.39 54.462 134.39 54.386C134.39 54.31 134.403 54.272 134.428 54.272C134.72 54.272 134.935 54.234 135.074 54.158C135.214 54.082 135.309 53.9553 135.359 53.778C135.41 53.588 135.435 53.303 135.435 52.923V49.142C135.435 47.9513 135.258 47.1343 134.903 46.691C134.561 46.235 134.086 46.007 133.478 46.007C132.972 46.007 132.497 46.1337 132.053 46.387C131.623 46.6403 131.217 47.052 130.837 47.622V52.923C130.837 53.303 130.856 53.588 130.894 53.778C130.945 53.9553 131.034 54.082 131.16 54.158C131.3 54.234 131.509 54.272 131.787 54.272C131.813 54.272 131.825 54.31 131.825 54.386C131.825 54.462 131.813 54.5 131.787 54.5C131.42 54.5 131.129 54.4937 130.913 54.481L129.811 54.462L128.766 54.481C128.564 54.4937 128.279 54.5 127.911 54.5C127.886 54.5 127.873 54.462 127.873 54.386C127.873 54.31 127.886 54.272 127.911 54.272C128.203 54.272 128.418 54.2403 128.557 54.177C128.709 54.1137 128.811 53.9933 128.861 53.816C128.912 53.626 128.937 53.341 128.937 52.961V47.147C128.937 46.767 128.912 46.4883 128.861 46.311C128.811 46.1337 128.716 46.0133 128.576 45.95C128.45 45.874 128.247 45.836 127.968 45.836C127.93 45.836 127.911 45.798 127.911 45.722C127.911 45.646 127.93 45.608 127.968 45.608L129.203 45.627L130.476 45.608C130.628 45.608 130.723 45.6333 130.761 45.684C130.812 45.722 130.837 45.817 130.837 45.969V47.014C131.319 46.4567 131.838 46.045 132.395 45.779C132.953 45.513 133.567 45.38 134.238 45.38C135.125 45.38 135.86 45.6333 136.442 46.14C137.025 46.634 137.316 47.489 137.316 48.705V52.961C137.316 53.341 137.335 53.626 137.373 53.816C137.411 53.9933 137.481 54.1137 137.582 54.177C137.684 54.2403 137.842 54.272 138.057 54.272ZM150.992 52.961C150.992 53.341 151.024 53.626 151.087 53.816C151.15 53.9933 151.264 54.1137 151.429 54.177C151.594 54.2403 151.86 54.272 152.227 54.272C152.252 54.272 152.265 54.31 152.265 54.386C152.265 54.462 152.252 54.5 152.227 54.5C151.834 54.5 151.53 54.4937 151.315 54.481L150.023 54.462L148.788 54.481C148.56 54.4937 148.243 54.5 147.838 54.5C147.813 54.5 147.8 54.462 147.8 54.386C147.8 54.31 147.813 54.272 147.838 54.272C148.205 54.272 148.471 54.2403 148.636 54.177C148.813 54.1137 148.934 53.9933 148.997 53.816C149.06 53.626 149.092 53.341 149.092 52.961V47.147C149.092 46.767 149.06 46.4883 148.997 46.311C148.934 46.1337 148.813 46.0133 148.636 45.95C148.471 45.874 148.205 45.836 147.838 45.836C147.813 45.836 147.8 45.798 147.8 45.722C147.8 45.646 147.813 45.608 147.838 45.608L148.788 45.627C149.295 45.6523 149.706 45.665 150.023 45.665C150.365 45.665 150.802 45.6523 151.334 45.627L152.227 45.608C152.252 45.608 152.265 45.646 152.265 45.722C152.265 45.798 152.252 45.836 152.227 45.836C151.872 45.836 151.606 45.874 151.429 45.95C151.264 46.026 151.15 46.159 151.087 46.349C151.024 46.5263 150.992 46.805 150.992 47.185V52.961ZM168.315 53.398C168.366 53.398 168.397 53.4233 168.41 53.474C168.435 53.5247 168.429 53.5627 168.391 53.588C167.872 54.006 167.403 54.3037 166.985 54.481C166.58 54.6457 166.124 54.728 165.617 54.728C164.857 54.728 164.217 54.5253 163.698 54.12C163.179 53.7147 162.919 53.0433 162.919 52.106V47.128C162.919 46.786 162.843 46.558 162.691 46.444C162.552 46.33 162.286 46.273 161.893 46.273C161.855 46.273 161.836 46.216 161.836 46.102C161.836 45.988 161.855 45.931 161.893 45.931C162.539 45.931 163.103 45.7917 163.584 45.513C164.065 45.2343 164.376 44.867 164.515 44.411C164.54 44.373 164.578 44.354 164.629 44.354C164.68 44.354 164.724 44.3667 164.762 44.392C164.8 44.4047 164.819 44.4237 164.819 44.449V45.836C165.693 45.8233 166.713 45.7663 167.878 45.665C167.916 45.665 167.948 45.7093 167.973 45.798C167.998 45.8867 168.011 45.9943 168.011 46.121C168.011 46.2477 167.986 46.3743 167.935 46.501C167.897 46.615 167.859 46.6657 167.821 46.653C167.226 46.501 166.225 46.3997 164.819 46.349V51.669C164.819 53.1763 165.376 53.93 166.491 53.93C167.175 53.93 167.77 53.759 168.277 53.417L168.315 53.398ZM188.016 45.836C187.724 45.836 187.509 45.874 187.37 45.95C187.23 46.0133 187.135 46.1337 187.085 46.311C187.034 46.4883 187.009 46.767 187.009 47.147V52.961C187.009 53.341 187.034 53.626 187.085 53.816C187.135 53.9933 187.224 54.1137 187.351 54.177C187.49 54.2403 187.699 54.272 187.978 54.272C188.016 54.272 188.035 54.31 188.035 54.386C188.035 54.462 188.016 54.5 187.978 54.5L186.743 54.481L185.47 54.5C185.318 54.5 185.216 54.481 185.166 54.443C185.128 54.405 185.109 54.3037 185.109 54.139V53.113C184.159 54.1897 183.031 54.728 181.727 54.728C180.853 54.728 180.118 54.4937 179.523 54.025C178.927 53.5563 178.63 52.8343 178.63 51.859V47.147C178.63 46.767 178.611 46.4883 178.573 46.311C178.535 46.1337 178.465 46.0133 178.364 45.95C178.262 45.874 178.104 45.836 177.889 45.836C177.863 45.836 177.851 45.798 177.851 45.722C177.851 45.646 177.863 45.608 177.889 45.608L178.63 45.627C179.035 45.6523 179.364 45.665 179.618 45.665C179.922 45.665 180.302 45.6523 180.758 45.627L181.518 45.608C181.543 45.608 181.556 45.646 181.556 45.722C181.556 45.798 181.543 45.836 181.518 45.836C181.226 45.836 181.011 45.874 180.872 45.95C180.732 46.026 180.637 46.159 180.587 46.349C180.536 46.5263 180.511 46.805 180.511 47.185V51.403C180.511 52.3657 180.688 53.056 181.043 53.474C181.41 53.892 181.891 54.101 182.487 54.101C183.475 54.101 184.349 53.5627 185.109 52.486V47.185C185.109 46.805 185.083 46.5263 185.033 46.349C184.995 46.159 184.906 46.026 184.767 45.95C184.64 45.874 184.437 45.836 184.159 45.836C184.121 45.836 184.102 45.798 184.102 45.722C184.102 45.646 184.121 45.608 184.159 45.608L185.033 45.627C185.514 45.6523 185.881 45.665 186.135 45.665C186.363 45.665 186.705 45.6523 187.161 45.627L188.016 45.608C188.054 45.608 188.073 45.646 188.073 45.722C188.073 45.798 188.054 45.836 188.016 45.836ZM207.902 54.272C207.94 54.272 207.959 54.31 207.959 54.386C207.959 54.462 207.94 54.5 207.902 54.5H204.786C204.596 54.5 204.254 54.12 203.76 53.36C203.279 52.6 202.702 51.555 202.031 50.225C201.765 50.263 201.499 50.282 201.233 50.282H200.91V52.961C200.91 53.3537 200.935 53.6387 200.986 53.816C201.049 53.9933 201.157 54.1137 201.309 54.177C201.474 54.2403 201.733 54.272 202.088 54.272C202.113 54.272 202.126 54.31 202.126 54.386C202.126 54.462 202.113 54.5 202.088 54.5C201.708 54.5 201.41 54.4937 201.195 54.481L199.903 54.462L198.668 54.481C198.44 54.4937 198.123 54.5 197.718 54.5C197.693 54.5 197.68 54.462 197.68 54.386C197.68 54.31 197.693 54.272 197.718 54.272C198.073 54.272 198.332 54.2403 198.497 54.177C198.662 54.1137 198.776 53.9933 198.839 53.816C198.902 53.626 198.934 53.341 198.934 52.961V47.147C198.934 46.767 198.902 46.4883 198.839 46.311C198.788 46.1337 198.681 46.0133 198.516 45.95C198.351 45.874 198.098 45.836 197.756 45.836C197.718 45.836 197.699 45.798 197.699 45.722C197.699 45.646 197.718 45.608 197.756 45.608L198.687 45.627C199.194 45.6523 199.599 45.665 199.903 45.665C200.144 45.665 200.365 45.6587 200.568 45.646C200.771 45.6333 200.948 45.6207 201.1 45.608C201.518 45.57 201.911 45.551 202.278 45.551C203.266 45.551 204.02 45.7093 204.539 46.026C205.058 46.3427 205.318 46.7987 205.318 47.394C205.318 47.888 205.16 48.344 204.843 48.762C204.526 49.18 204.089 49.522 203.532 49.788C204.216 50.9407 204.805 51.84 205.299 52.486C205.793 53.132 206.243 53.5943 206.648 53.873C207.053 54.139 207.471 54.272 207.902 54.272ZM200.91 49.902C200.999 49.9147 201.151 49.921 201.366 49.921C202.088 49.921 202.588 49.7563 202.867 49.427C203.146 49.085 203.285 48.5783 203.285 47.907C203.285 46.5897 202.804 45.931 201.841 45.931C201.575 45.931 201.379 45.9627 201.252 46.026C201.125 46.0893 201.037 46.2097 200.986 46.387C200.935 46.5517 200.91 46.8177 200.91 47.185V49.902ZM218.488 48.572C218.462 48.9013 218.45 49.1737 218.45 49.389C218.45 50.795 218.76 51.916 219.381 52.752C220.001 53.588 220.875 54.006 222.003 54.006C222.319 54.006 222.642 53.9617 222.972 53.873C223.301 53.7843 223.592 53.6513 223.846 53.474H223.865C223.903 53.474 223.934 53.4993 223.96 53.55C223.998 53.588 224.004 53.626 223.979 53.664C223.092 54.3733 222.117 54.728 221.053 54.728C220.065 54.728 219.222 54.519 218.526 54.101C217.842 53.6703 217.322 53.113 216.968 52.429C216.613 51.745 216.436 51.004 216.436 50.206C216.436 49.332 216.651 48.534 217.082 47.812C217.512 47.0773 218.095 46.501 218.83 46.083C219.564 45.6523 220.362 45.437 221.224 45.437C222.161 45.437 222.877 45.684 223.371 46.178C223.865 46.672 224.112 47.318 224.112 48.116C224.112 48.2807 224.093 48.3947 224.055 48.458C224.029 48.5213 223.972 48.553 223.884 48.553L218.488 48.572ZM220.578 45.893C220.046 45.893 219.602 46.0957 219.248 46.501C218.906 46.9063 218.671 47.47 218.545 48.192L222.079 48.135C222.053 46.6403 221.553 45.893 220.578 45.893Z" fill="url(#paint1_linear_236_212)"/>
<rect y="1.5" width="65" height="65" rx="12" fill="#2B221B"/>
<path d="M57.3987 53.735C54.1287 55.385 50.8137 55.655 47.4537 54.545C43.8837 53.405 40.8087 50.975 38.2287 47.255C36.8487 45.275 35.6637 42.98 34.6737 40.37L33.2337 36.545H22.6137L20.2287 42.215C20.0787 42.605 20.0037 42.92 20.0037 43.16C20.0037 43.4 20.0487 43.67 20.1387 43.97C20.2587 44.24 20.4837 44.495 20.8137 44.735C21.1737 44.945 21.5637 45.05 21.9837 45.05H22.3437V45.5H12.7137V45.05H13.1187C13.8087 45.05 14.4837 44.855 15.1437 44.465C15.8337 44.045 16.4037 43.43 16.8537 42.62L26.8887 19.715C25.7187 17.075 24.4737 15.26 23.1537 14.27C22.0437 13.43 20.9787 13.01 19.9587 13.01C18.9687 13.01 18.0387 13.16 17.1687 13.46L17.0787 13.01C19.2387 11.9 21.3087 11.345 23.2887 11.345C25.7487 11.345 27.9537 12.305 29.9037 14.225C31.8237 16.115 33.5187 18.845 34.9887 22.415L41.5137 38.525C43.9737 44.615 46.4937 48.8 49.0737 51.08C50.1237 52.01 51.2037 52.655 52.3137 53.015C53.4237 53.375 54.3537 53.555 55.1037 53.555C55.8837 53.555 56.6337 53.465 57.3537 53.285L57.3987 53.735ZM23.3787 34.61H32.5587L29.4087 26.285C29.2587 25.865 29.0487 25.295 28.7787 24.575C28.5087 23.825 28.3287 23.3 28.2387 23L23.3787 34.61Z" fill="#FFBD7C"/>
<defs>
<linearGradient id="paint0_linear_236_212" x1="151" y1="-3.5" x2="151" y2="49.5" gradientUnits="userSpaceOnUse">
<stop offset="0.53125" stop-color="#2B221B"/>
<stop offset="1" stop-color="#FF7509" stop-opacity="0"/>
</linearGradient>
<linearGradient id="paint1_linear_236_212" x1="151" y1="36.5" x2="151" y2="61.5" gradientUnits="userSpaceOnUse">
<stop offset="0.53125" stop-color="#2B221B"/>
<stop offset="1" stop-color="#FF7509" stop-opacity="0"/>
</linearGradient>
</defs>
</svg>
